<svg xmlns="http://www.w3.org/2000/svg" version="1.0" width="300.000000pt" height="300.000000pt" viewBox="0 0 300.000000 300.000000" preserveAspectRatio="xMidYMid meet" transform="matrix(1, 0, 0, 1, 0, 0)">

<g transform="translate(0.000000,300.000000) scale(0.100000,-0.100000)" fill="#f8f9f9" stroke="none">
<path d="M964 2981 c-60 -28 -96 -80 -102 -146 -6 -70 2 -97 37 -138 l29 -33 -38 -89 -38 -90 -94 -6 c-96 -6 -156 -27 -205 -72 l-22 -20 -53 37 c-113 78 -112 76 -109 144 2 49 -2 70 -20 102 -40 71 -128 109 -204 89 -143 -38 -193 -212 -88 -311 61 -58 138 -72 209 -38 l42 21 81 -58 c55 -40 79 -63 75 -73 -3 -8 -12 -40 -20 -70 -37 -140 39 -301 174 -367 48 -24 70 -28 139 -28 l83 0 44 -110 c51 -124 55 -104 -39 -174 -55 -41 -124 -135 -156 -211 -20 -47 -23 -73 -24 -175 0 -134 11 -178 72 -274 l35 -54 -123 -123 -122 -122 -44 23 c-100 54 -214 53 -314 -2 -59 -32 -99 -74 -136 -146 -24 -45 -28 -64 -28 -137 0 -73 4 -93 28 -141 32 -66 99 -132 165 -162 36 -17 66 -22 132 -22 73 0 92 4 137 28 72 37 114 77 146 136 55 100 56 214 2 314 l-23 44 122 122 123 123 54 -34 c84 -54 135 -70 234 -76 109 -5 176 7 263 50 81 40 177 134 216 211 31 63 36 65 112 43 27 -8 67 -19 90 -25 l41 -11 7 -62 c7 -72 40 -149 85 -200 l31 -36 -77 -130 -78 -130 -66 -4 c-54 -3 -73 -9 -104 -32 -41 -32 -74 -95 -75 -142 -1 -103 88 -194 187 -194 146 1 235 166 156 290 l-20 31 79 133 79 133 57 -15 c43 -11 71 -12 115 -5 39 6 60 6 66 -1 5 -6 33 -60 63 -121 l55 -110 -31 -49 c-64 -102 -26 -224 86 -271 50 -20 101 -19 147 5 108 55 141 182 72 277 -35 48 -84 73 -145 73 l-46 0 -61 123 -62 123 46 48 c25 25 49 56 52 66 8 24 15 24 85 2 72 -22 80 -28 80 -58 0 -47 50 -114 107 -143 35 -18 119 -13 162 9 127 64 134 238 15 320 -70 47 -185 32 -238 -31 l-25 -30 -69 21 -69 21 -6 66 c-12 125 -76 221 -181 273 -79 39 -154 48 -227 27 -95 -28 -155 -76 -214 -171 -9 -14 -20 -13 -115 12 l-105 27 -6 105 c-5 71 -13 122 -28 158 l-21 52 98 63 c53 35 156 100 229 146 l131 82 47 -36 c75 -56 110 -68 205 -69 68 0 94 4 131 23 75 36 125 86 161 159 29 58 33 77 33 142 -1 89 -30 162 -90 225 l-37 40 50 95 c28 52 84 156 124 230 l73 135 62 6 c75 7 126 41 154 103 35 78 20 154 -42 213 -60 56 -130 68 -205 34 -65 -30 -98 -81 -102 -160 -3 -58 -1 -71 22 -104 14 -21 26 -41 26 -44 0 -4 -55 -109 -122 -235 l-122 -228 -41 8 c-50 9 -99 9 -148 0 l-37 -7 -46 91 c-41 82 -44 92 -30 107 23 26 46 87 46 123 -1 75 -61 153 -135 178 -79 26 -183 -19 -219 -95 -58 -122 28 -264 163 -269 l46 -2 46 -88 46 -89 -39 -39 c-79 -79 -113 -203 -84 -308 8 -30 12 -58 8 -61 -4 -4 -107 -70 -229 -147 l-222 -141 -55 53 c-62 60 -155 110 -237 127 -33 7 -93 10 -155 6 l-101 -6 -43 109 -43 109 51 46 c75 68 107 139 107 240 0 99 -30 172 -99 238 -25 24 -46 48 -46 54 0 10 59 149 72 169 4 6 30 14 57 16 97 10 168 99 159 199 -13 127 -149 204 -264 150z m140 -99 c64 -58 23 -162 -64 -162 -39 0 -90 47 -90 84 0 86 93 133 154 78z m1770 0 c64 -58 23 -162 -64 -162 -44 0 -90 47 -90 92 1 80 95 123 154 70z m-2623 -241 c80 -80 -22 -198 -117 -136 -35 23 -47 60 -34 101 23 69 99 86 151 35z m1791 -32 c11 -6 26 -26 34 -45 12 -29 12 -39 0 -68 -26 -64 -97 -76 -147 -27 -41 41 -37 102 10 138 20 15 76 17 103 2z m-1201 -234 c113 -40 178 -165 144 -280 -31 -108 -114 -170 -227 -169 -56 0 -74 5 -114 30 -68 41 -107 108 -112 188 -7 101 40 179 133 222 58 28 115 30 176 9z m1567 -261 c87 -36 141 -120 142 -220 1 -235 -312 -316 -430 -111 -68 118 -19 270 105 328 49 23 133 24 183 3z m-1144 -559 c77 -20 133 -54 193 -118 155 -165 148 -414 -16 -570 -67 -64 -129 -95 -216 -110 -269 -46 -514 199 -468 468 15 86 46 149 106 212 108 115 251 157 401 118z m1036 -467 c198 -119 112 -428 -119 -428 -134 0 -231 98 -231 234 0 131 98 226 230 226 57 0 74 -5 120 -32z m574 -316 c65 -59 21 -162 -69 -162 -60 0 -104 85 -74 141 24 46 102 57 143 21z m-2422 -248 c69 -48 101 -103 106 -179 4 -55 0 -73 -23 -120 -70 -144 -256 -174 -370 -60 -113 113 -84 298 57 370 45 22 63 26 120 23 55 -3 75 -9 110 -34z m1369 -273 c20 -20 29 -40 29 -61 0 -86 -105 -128 -161 -64 -77 90 48 208 132 125z m752 17 c33 -17 46 -39 47 -76 0 -46 -16 -71 -56 -88 -29 -12 -39 -12 -68 0 -19 8 -39 23 -45 34 -43 80 44 172 122 130z" fill="#f8f9f9"/>
</g>
</svg>